<?xml version="1.0" standalone="no"?>
<!DOCTYPE svg PUBLIC "-//W3C//DTD SVG 20010904//EN"
 "http://www.w3.org/TR/2001/REC-SVG-20010904/DTD/svg10.dtd">
<svg version="1.0" xmlns="http://www.w3.org/2000/svg"
 width="460.000000pt" height="460.000000pt" viewBox="0 0 460.000000 460.000000"
 preserveAspectRatio="xMidYMid meet">
<metadata>
Created by potrace 1.14, written by Peter Selinger 2001-2017
</metadata>
<g transform="translate(0.000000,460.000000) scale(0.100000,-0.100000)"
fill="#000000" stroke="none">
<path d="M2360 4470 c1 -43 3 -51 11 -37 9 15 13 16 26 5 15 -12 15 -11 2 9
-10 16 -16 19 -22 10 -5 -7 -7 -2 -3 13 3 14 1 32 -4 40 -7 10 -10 -2 -10 -40z"/>
<path d="M2378 4414 c-12 -11 -10 -54 2 -54 6 0 10 -6 10 -14 0 -8 8 -13 18
-12 12 1 16 -5 14 -22 -2 -13 1 -29 6 -35 8 -10 32 -103 32 -123 0 -14 -44 3
-54 20 -6 11 -18 28 -27 38 -14 16 -17 17 -22 4 -3 -8 -1 -17 6 -19 14 -5 -19
-47 -37 -47 -19 0 -47 -38 -33 -44 17 -7 -43 3 -157 25 -54 11 -101 17 -104
14 -4 -3 4 -8 16 -12 12 -3 22 -11 22 -19 0 -7 7 -17 16 -22 17 -9 15 -48 -2
-46 -5 1 -28 4 -51 8 -35 5 -41 4 -37 -9 4 -9 1 -15 -7 -15 -11 0 -11 -3 1
-10 8 -5 20 -10 25 -10 6 0 3 5 -5 10 -13 9 -13 10 0 9 8 -1 26 -5 40 -9 l25
-8 -25 -1 c-22 -1 -23 -3 -7 -12 9 -6 27 -7 40 -4 17 5 19 4 7 -4 -12 -9 -11
-11 7 -11 12 0 25 -4 28 -10 8 -13 15 -14 -105 20 -110 31 -150 37 -150 20 0
-5 6 -10 13 -10 7 0 28 -11 47 -25 33 -24 33 -25 9 -26 -21 -1 -19 -2 9 -10
28 -8 46 -29 24 -29 -17 0 -12 -49 6 -53 9 -3 -3 -3 -28 -1 -35 3 -39 2 -20
-5 27 -10 26 -12 -7 -16 -13 -1 -23 1 -23 4 0 4 -9 7 -20 7 -28 0 -25 -5 13
-21 32 -14 127 -75 116 -75 -3 0 -26 7 -52 16 -66 22 -79 13 -27 -19 25 -15
38 -27 29 -27 -9 0 -19 3 -23 8 -4 4 -11 7 -14 7 -4 0 -26 6 -50 14 -34 11
-45 12 -55 2 -9 -10 -6 -18 18 -39 17 -14 22 -23 13 -19 -10 4 -25 10 -33 13
-8 3 -15 2 -15 -4 0 -5 14 -15 31 -22 22 -10 27 -15 17 -21 -11 -7 -11 -9 0
-9 7 0 20 -7 28 -15 14 -13 14 -17 -1 -32 -16 -15 -16 -18 -1 -28 13 -10 0
-13 -67 -18 -85 -7 -132 -18 -177 -41 -14 -8 -68 -21 -120 -30 -52 -10 -129
-29 -170 -43 -82 -27 -124 -48 -78 -39 18 4 32 0 44 -11 17 -17 16 -18 -12
-20 -124 -10 -224 -27 -224 -38 0 -6 -10 -17 -22 -24 -19 -9 -6 -10 67 -7 64
4 81 2 60 -4 -16 -5 -47 -19 -68 -31 -21 -11 -45 -18 -53 -15 -8 3 -13 2 -10
-3 6 -9 -157 -84 -219 -100 -22 -6 -78 -10 -125 -10 l-85 1 50 13 50 13 -50 0
c-27 0 -52 -4 -55 -9 -3 -4 -32 -1 -64 7 -49 13 -60 13 -67 2 -7 -10 -9 -10
-9 1 0 8 -3 11 -7 8 -3 -4 6 -20 21 -36 16 -16 26 -33 23 -38 -7 -12 -47 -191
-47 -211 0 -9 6 -12 15 -8 12 4 14 -1 10 -24 -3 -17 -1 -30 3 -30 5 0 7 -11 4
-25 -3 -19 0 -25 13 -25 17 0 17 -1 1 -19 -17 -19 -17 -20 5 -23 21 -3 24 -11
35 -100 7 -53 22 -123 33 -155 11 -32 38 -115 60 -184 23 -70 50 -148 61 -174
l20 -48 -47 6 -48 7 32 -16 c18 -9 44 -27 57 -41 31 -31 69 -107 56 -111 -6
-2 -6 -10 0 -23 8 -13 7 -25 0 -39 -12 -22 -12 -22 -178 123 -69 59 -91 68
-112 41 -8 -8 -9 -14 -4 -13 5 1 17 -1 27 -6 15 -6 16 -10 5 -17 -11 -8 -11
-10 0 -15 7 -3 23 -15 35 -28 12 -13 48 -39 79 -59 62 -39 88 -68 83 -94 -2
-9 -9 -45 -16 -80 -15 -80 3 -192 35 -222 80 -73 108 -90 152 -90 39 0 46 -4
69 -37 14 -21 25 -45 25 -54 0 -9 7 -19 15 -23 8 -3 15 -10 15 -16 0 -15 51
-90 61 -90 5 0 9 6 9 13 0 19 30 17 30 -2 1 -13 3 -13 11 2 8 14 7 27 -4 50
-29 61 -36 82 -42 125 -4 24 -20 78 -35 120 -15 43 -30 100 -33 127 -3 28 -13
70 -22 95 -10 25 -20 62 -22 83 -5 35 1 43 30 38 4 -1 10 6 14 15 4 10 19 -20
42 -83 42 -110 75 -168 120 -206 17 -14 31 -30 31 -36 0 -5 4 -13 10 -16 5 -3
7 0 4 9 -5 12 9 13 92 10 54 -3 165 0 247 6 130 10 195 18 332 46 24 4 27 3
15 -6 -12 -10 -11 -11 8 -7 21 5 26 -2 25 -40 -1 -8 5 -10 16 -4 31 17 132
230 160 337 27 102 92 145 167 108 32 -16 52 -41 111 -139 40 -66 82 -130 93
-142 12 -12 20 -24 18 -27 -4 -6 52 -49 57 -44 3 2 -4 14 -15 26 l-21 22 26 0
c14 0 24 -3 22 -7 -7 -11 328 2 445 17 143 17 196 29 202 47 4 9 13 13 22 9
10 -4 13 -2 8 6 -5 8 -2 9 10 5 9 -4 15 -3 11 3 -3 5 8 35 24 67 29 55 71 227
71 289 0 18 3 25 10 18 5 -5 15 -71 22 -147 10 -111 10 -153 -1 -224 -7 -49
-15 -108 -18 -133 l-5 -45 20 29 c11 16 23 45 27 64 6 32 8 34 23 19 14 -15
19 -15 52 4 22 13 50 43 70 75 31 51 32 59 26 117 -10 101 -12 110 -30 146
-14 27 -20 31 -28 20 -7 -11 -9 -9 -5 8 3 15 1 20 -9 16 -25 -9 -16 32 16 76
17 23 35 39 41 36 19 -12 85 6 111 30 19 17 28 21 32 12 3 -7 3 -1 0 13 -17
69 -73 79 -133 25 -53 -48 -72 -40 -64 26 7 55 0 59 -48 30 -18 -11 -26 -22
-20 -25 16 -10 13 -36 -4 -36 -8 0 -15 4 -15 10 0 5 -11 12 -25 16 -32 8 -32
24 -1 24 21 0 25 5 28 38 2 29 7 36 21 34 10 -2 17 3 17 13 0 9 -4 13 -10 10
-6 -3 -10 4 -10 17 0 16 3 19 9 10 13 -21 23 108 11 148 -13 44 -13 53 1 45 7
-5 10 18 9 72 -1 43 0 83 1 88 6 29 9 124 9 240 0 121 1 128 15 105 15 -24 15
-23 10 25 -4 28 -8 61 -11 75 -4 19 -2 22 6 10 16 -25 11 0 -17 85 -30 92
-113 238 -147 260 -20 13 -24 26 -28 83 -6 79 -28 126 -94 201 -32 35 -67 62
-107 81 -33 15 -56 30 -51 32 5 3 3 3 -5 1 -8 -2 -48 19 -90 46 -42 27 -98 61
-126 77 -27 16 -71 48 -96 72 -26 23 -65 55 -87 70 -22 15 -66 45 -98 66 -33
21 -64 46 -71 55 -6 9 -15 13 -18 9 -8 -8 20 -74 35 -83 6 -3 10 -14 10 -23 0
-13 -5 -12 -21 8 -11 14 -18 19 -14 13 4 -8 1 -11 -8 -7 -8 3 -17 18 -20 34
-4 16 -17 39 -31 52 -13 13 -26 31 -28 41 -1 11 -6 15 -10 11z m182 -210 c0
-2 -7 -4 -15 -4 -8 0 -15 4 -15 10 0 5 7 7 15 4 8 -4 15 -8 15 -10z m-365
-109 l30 -14 -35 6 c-19 3 -53 12 -75 19 l-40 14 45 -6 c25 -3 59 -12 75 -19z
m146 7 c-7 -2 -18 1 -23 6 -8 8 -4 9 13 5 13 -4 18 -8 10 -11z m-51 -406 c0
-2 -12 -11 -27 -20 l-28 -17 24 20 c23 21 31 25 31 17z m-573 -196 c22 0 8
-13 -30 -27 -30 -10 -28 -11 23 -7 51 4 48 2 -40 -21 -52 -14 -124 -39 -159
-55 -35 -17 -66 -30 -69 -30 -4 0 15 20 42 45 56 53 116 86 161 88 18 1 30 6
27 11 -3 5 2 6 12 3 10 -4 25 -7 33 -7z m1342 -220 c3 -3 23 -39 43 -80 25
-52 39 -95 43 -140 12 -123 46 -262 96 -398 31 -85 55 -173 64 -232 19 -125
19 -134 -2 -125 -38 14 -185 26 -333 27 -115 1 -136 3 -80 7 l75 6 -50 7 c-27
3 -97 0 -155 -8 -120 -16 -161 -17 -112 -3 17 5 32 15 32 22 1 21 73 91 113
110 21 9 49 17 63 17 16 0 23 4 18 12 -5 7 -3 8 6 3 7 -5 25 -9 39 -11 14 -1
48 -7 75 -13 36 -8 53 -8 63 0 10 9 13 8 13 -1 0 -7 7 -10 17 -6 9 4 20 1 24
-6 4 -7 10 -10 13 -7 6 5 -42 78 -81 124 -16 17 -49 44 -75 59 -47 28 -49 28
-133 17 -46 -7 -100 -18 -119 -26 -52 -22 -109 -33 -131 -25 -11 4 -24 4 -30
0 -19 -14 -58 -23 -51 -11 4 6 5 11 2 11 -12 0 -58 -113 -53 -131 3 -12 1 -17
-6 -12 -6 4 -8 0 -5 -8 7 -17 -19 -85 -28 -76 -4 3 -19 -6 -34 -21 -16 -15
-44 -40 -63 -57 -19 -16 -33 -33 -31 -37 2 -3 0 -10 -6 -13 -8 -5 -7 -11 1
-21 9 -11 8 -14 -5 -14 -9 0 -16 -4 -16 -9 0 -5 -15 -15 -32 -24 -43 -19 -118
-30 -118 -17 0 5 6 10 13 10 9 0 9 2 0 8 -7 4 -15 27 -19 50 -4 23 -10 42 -15
42 -5 0 -9 7 -9 15 0 8 -4 15 -9 15 -10 0 -36 70 -47 125 -4 23 -9 32 -11 23
-6 -26 -23 -22 -23 5 0 12 -9 37 -20 55 l-20 32 -93 0 c-52 0 -119 -5 -148
-10 -30 -6 -85 -15 -122 -20 -38 -6 -78 -16 -90 -22 -12 -7 -26 -12 -30 -13
-15 0 -106 -80 -112 -97 -3 -9 -15 -20 -26 -23 -10 -4 -19 -11 -19 -16 0 -5
12 -2 27 8 32 21 36 22 156 30 62 4 106 2 120 -5 12 -6 29 -13 37 -15 11 -4
10 -6 -3 -6 -17 -1 -17 -3 -3 -16 9 -9 21 -24 28 -33 7 -10 26 -28 42 -40 16
-12 22 -22 15 -22 -11 0 -11 -2 1 -10 10 -7 -11 -10 -70 -11 -78 -2 -80 -3
-30 -8 l55 -6 -80 -8 c-44 -4 -114 -14 -155 -22 -41 -9 -113 -22 -160 -30
-121 -20 -249 -50 -291 -68 -32 -13 -38 -21 -44 -56 -5 -32 -11 -41 -26 -41
-32 0 -36 30 -6 52 15 11 27 25 27 32 0 7 5 17 12 24 7 7 11 37 9 74 -1 35 3
90 9 123 6 33 15 87 21 120 6 33 17 70 25 83 8 12 22 34 31 50 17 27 17 27 -3
9 -18 -15 -17 -10 7 39 16 31 29 63 29 71 0 8 18 52 40 99 22 47 40 96 40 109
0 42 62 87 143 107 62 15 73 15 80 3 11 -21 37 -19 38 3 0 10 3 12 6 5 8 -21
33 -15 143 36 138 64 139 64 184 66 36 1 40 -1 57 -39 14 -33 16 -53 10 -101
-5 -33 -12 -68 -16 -78 -13 -31 23 -8 46 29 11 19 25 32 30 29 5 -4 7 0 4 7
-3 7 6 25 19 39 14 15 23 29 20 32 -3 3 -1 8 5 11 5 4 13 1 17 -5 5 -8 3 -9
-6 -4 -8 5 -11 4 -7 -2 7 -10 36 -11 52 -1 6 3 45 9 88 13 42 4 77 11 77 16 0
5 12 9 26 9 14 0 35 5 46 11 30 16 196 56 277 68 38 5 82 16 100 26 39 20 69
25 192 34 101 8 119 13 119 37 0 7 15 20 33 28 23 10 27 15 13 15 -31 1 -6 19
39 29 27 5 41 5 44 -2 2 -6 7 -13 10 -16z m-2009 -111 c-54 -25 -143 -59 -150
-58 -14 2 157 79 175 79 12 0 3 -8 -25 -21z m957 -801 c-3 -8 -6 -5 -6 6 -1
11 2 17 5 13 3 -3 4 -12 1 -19z m776 -45 c-13 -2 -33 -2 -45 0 -13 2 -3 4 22
4 25 0 35 -2 23 -4z m-74 -7 c-2 -2 -24 -6 -49 -9 -30 -4 -38 -3 -25 3 19 8
83 14 74 6z m512 -54 c44 -18 62 -73 56 -166 -8 -121 -37 -263 -61 -299 -15
-23 -37 -37 -76 -50 -82 -28 -304 -49 -467 -45 -135 3 -143 4 -169 28 -26 24
-109 188 -100 197 2 3 12 -8 20 -24 l16 -28 -6 30 c-3 17 -7 36 -10 43 -7 23
12 12 30 -19 17 -28 22 -30 65 -28 54 3 121 -9 121 -22 0 -12 71 -11 90 1 12
7 11 9 -5 9 -50 1 -97 12 -139 32 -48 22 -58 42 -29 53 14 6 11 10 -15 26 -45
28 -44 65 6 111 30 29 80 59 97 59 2 0 -2 -11 -9 -26 -18 -34 -6 -86 33 -134
27 -34 29 -39 13 -43 -9 -3 22 -5 71 -5 81 1 87 2 81 20 -3 11 2 31 12 46 13
19 18 45 18 89 l0 62 27 -20 c16 -11 38 -33 49 -50 12 -16 26 -27 31 -24 5 4
9 1 9 -5 0 -6 -11 -15 -24 -20 -26 -10 -62 -44 -78 -75 -10 -19 -10 -19 8 -4
10 9 36 22 57 29 21 6 37 18 37 26 0 9 4 13 8 10 4 -3 16 11 26 29 11 19 22
32 26 30 17 -11 -3 32 -28 60 -33 37 -66 52 -129 60 -57 8 -245 -10 -274 -26
-11 -6 -28 -12 -37 -14 -9 -2 -36 -11 -59 -19 -23 -9 -48 -14 -55 -11 -7 3
-24 -13 -38 -36 -20 -33 -26 -37 -31 -22 -4 12 0 20 10 25 12 5 12 7 2 7 -11
1 -10 6 4 21 38 42 203 103 326 120 83 11 456 6 490 -8z m-1379 -124 c51 -8
68 -15 68 -27 -1 -21 -22 -49 -35 -44 -6 2 -10 -18 -11 -47 0 -28 -6 -56 -12
-62 -21 -21 -13 -29 26 -26 23 2 41 -2 48 -11 13 -17 34 -7 34 16 0 9 7 24 16
34 17 19 11 84 -7 74 -5 -4 -6 1 -3 9 3 9 2 16 -4 16 -6 0 -12 -6 -15 -12 -2
-7 -8 -9 -13 -5 -5 4 -2 12 6 17 14 9 7 14 -13 11 -5 -1 -6 3 -2 9 4 7 12 7
25 0 24 -13 40 -13 20 0 -8 5 -11 12 -7 16 4 5 17 -1 28 -13 19 -19 21 -31 20
-156 -2 -209 -32 -279 -130 -311 -115 -38 -480 -72 -593 -56 -81 12 -108 28
-135 83 -28 56 -79 222 -88 289 -10 70 -2 91 47 115 49 25 216 69 333 89 88
15 283 11 397 -8z m898 2 c0 -15 -7 -20 -27 -20 -34 1 -71 25 -51 33 7 3 28 6
46 6 26 1 32 -3 32 -19z m-793 -26 c-3 -3 -12 -4 -19 -1 -8 3 -5 6 6 6 11 1
17 -2 13 -5z m860 -79 c-9 -8 -22 -15 -29 -15 -7 0 -2 9 12 20 28 21 40 19 17
-5z m-2 -55 c3 -5 -1 -10 -9 -10 -9 0 -16 5 -16 10 0 6 4 10 9 10 6 0 13 -4
16 -10z m-52 -7 c-7 -2 -21 -2 -30 0 -10 3 -4 5 12 5 17 0 24 -2 18 -5z"/>
<path d="M2692 2988 c-30 -5 -52 -12 -49 -14 5 -5 149 14 156 21 7 7 -48 4
-107 -7z"/>
<path d="M1550 2121 c-41 -10 -92 -25 -112 -34 -35 -15 -138 -112 -138 -130 0
-5 7 -1 16 7 20 21 21 21 54 -14 15 -16 36 -29 47 -29 16 1 16 2 1 6 -10 2
-18 9 -18 14 0 6 5 7 10 4 15 -9 12 2 -5 19 -24 23 -4 50 57 79 89 42 98 43
98 11 0 -52 23 -104 57 -130 29 -22 39 -24 81 -18 26 4 57 10 69 15 52 19 72
142 32 193 -19 24 -26 26 -97 25 -42 0 -111 -9 -152 -18z m138 -43 c-7 -19
-38 -22 -38 -4 0 10 9 16 21 16 12 0 19 -5 17 -12z"/>
<path d="M1890 1890 c0 -6 -6 -10 -12 -9 -21 3 -102 -31 -93 -39 7 -7 105 31
117 45 7 9 7 13 -1 13 -6 0 -11 -5 -11 -10z"/>
<path d="M2424 4404 c9 -8 16 -23 16 -32 0 -11 3 -13 11 -5 8 8 6 17 -7 32
-10 11 -22 21 -27 21 -5 0 -1 -7 7 -16z"/>
<path d="M2406 4385 c4 -8 11 -15 16 -15 6 0 5 6 -2 15 -7 8 -14 15 -16 15 -2
0 -1 -7 2 -15z"/>
<path d="M1850 4040 c8 -5 24 -10 34 -10 26 0 18 6 -19 14 -22 5 -26 4 -15 -4z"/>
<path d="M1780 3770 c0 -5 7 -10 16 -10 8 0 12 5 9 10 -3 6 -10 10 -16 10 -5
0 -9 -4 -9 -10z"/>
<path d="M1381 3585 c-74 -17 -88 -25 -40 -25 26 0 30 -3 19 -10 -13 -9 -13
-10 0 -10 25 0 313 50 318 55 12 11 -238 2 -297 -10z"/>
<path d="M560 1900 c0 -5 5 -10 11 -10 5 0 7 5 4 10 -3 6 -8 10 -11 10 -2 0
-4 -4 -4 -10z"/>
<path d="M3400 1610 c0 -5 5 -10 11 -10 5 0 7 5 4 10 -3 6 -8 10 -11 10 -2 0
-4 -4 -4 -10z"/>
<path d="M3173 1525 c-18 -19 -33 -43 -33 -53 0 -11 -9 -31 -20 -45 -11 -14
-20 -30 -20 -37 0 -25 -42 -150 -51 -150 -5 0 -9 -18 -9 -40 0 -22 -4 -40 -8
-40 -9 0 -32 -59 -32 -82 0 -8 -10 -28 -22 -44 -13 -15 -21 -37 -19 -49 1 -11
-1 -17 -5 -12 -9 9 -54 -32 -54 -50 0 -18 -65 -83 -84 -83 -9 0 -16 -7 -16
-15 0 -8 -11 -17 -25 -20 -14 -3 -36 -7 -49 -10 -35 -7 -58 25 -60 85 -2 46 0
50 19 44 15 -4 17 -3 6 5 -12 8 -7 19 28 65 39 53 70 75 57 41 -5 -14 -2 -14
24 0 16 8 36 15 45 15 13 0 15 9 13 47 -4 61 -41 103 -90 103 -19 0 -38 3 -41
7 -4 4 -28 7 -54 8 -26 2 -49 7 -51 14 -2 6 -15 9 -30 6 -15 -3 -22 -3 -16 0
6 3 9 16 7 29 -3 12 2 40 11 61 9 20 16 59 16 85 0 45 -2 48 -31 54 -17 3 -41
6 -53 6 -11 0 -34 14 -49 30 -36 37 -46 37 -82 0 -16 -17 -35 -28 -42 -26 -7
3 -13 1 -13 -3 0 -15 -88 -61 -104 -55 -12 4 -15 2 -10 -9 5 -13 1 -14 -37 -1
-45 16 -89 11 -126 -13 -14 -9 -37 -14 -58 -11 -53 6 -45 -15 41 -99 118 -114
99 -108 318 -109 137 0 191 -3 194 -12 2 -7 16 -12 30 -12 27 0 61 -15 52 -23
-3 -2 -50 4 -105 13 -96 16 -103 16 -158 -1 -50 -16 -69 -17 -132 -8 -81 11
-140 1 -185 -31 -33 -23 -164 -90 -178 -90 -16 0 -23 -29 -12 -50 12 -22 105
-26 183 -7 40 10 77 11 158 4 96 -9 116 -8 193 12 92 23 142 26 166 11 10 -6
11 -10 3 -10 -7 0 -13 -5 -13 -11 0 -40 -150 -112 -260 -124 -61 -7 -140 -33
-140 -46 0 -5 6 -9 13 -10 6 0 3 -5 -8 -10 -21 -10 -47 -73 -39 -93 7 -19 99
-46 155 -46 29 0 109 7 177 16 146 19 179 13 159 -30 -7 -14 -22 -28 -34 -31
-13 -3 -23 -12 -23 -21 0 -20 -51 -68 -86 -81 -40 -14 -165 -45 -186 -46 -10
-1 -18 -5 -18 -10 0 -5 -7 -7 -15 -4 -8 4 -17 1 -21 -5 -4 -7 -9 -6 -15 3 -6
11 -9 10 -15 -4 -6 -17 -7 -17 -20 0 -7 10 -14 13 -14 8 0 -14 -40 -14 -40 0
0 6 -21 12 -46 14 -25 1 -55 7 -65 14 -16 10 -21 9 -29 -3 -9 -13 -10 -13 -10
0 0 8 -11 20 -24 26 -18 9 -25 8 -34 -5 -9 -14 -11 -12 -11 8 -1 18 -5 22 -20
18 -14 -3 -17 0 -13 15 3 13 -4 28 -21 44 -14 13 -28 24 -31 24 -6 0 -82 68
-174 158 -36 34 -69 62 -73 62 -4 0 -17 11 -28 26 -11 14 -22 24 -25 22 -3 -2
-11 6 -19 16 -10 14 -16 16 -21 7 -9 -15 -46 14 -46 36 0 7 -11 13 -26 13 -29
0 -54 21 -54 45 0 11 -6 15 -18 11 -12 -4 -26 1 -37 14 -10 11 -21 17 -25 15
-4 -3 -10 2 -14 10 -3 8 -10 15 -16 15 -6 0 -21 11 -34 25 -17 18 -25 22 -34
13 -18 -18 -14 -32 5 -17 15 12 16 12 9 -6 -20 -48 -18 -64 10 -90 15 -14 29
-33 30 -41 3 -18 25 -46 31 -40 12 11 53 -40 53 -66 0 -15 5 -28 10 -28 6 0
10 -9 10 -21 0 -11 4 -17 10 -14 5 3 7 0 5 -8 -3 -7 6 -26 20 -41 14 -15 25
-21 26 -14 0 7 4 4 9 -7 6 -14 9 -16 10 -5 1 8 5 4 9 -10 4 -14 13 -24 19 -22
7 1 12 -6 13 -15 0 -16 1 -15 8 2 6 16 9 14 15 -15 5 -28 9 -32 17 -20 7 10
12 11 15 3 3 -6 16 -24 30 -40 42 -47 106 -214 89 -231 -3 -3 -5 2 -5 11 0 10
-7 17 -16 17 -10 0 -14 6 -11 14 9 22 -44 4 -57 -19 -6 -11 -37 -48 -68 -83
-32 -34 -61 -75 -64 -90 -4 -15 -19 -53 -35 -85 -45 -90 -50 -87 111 -87 83 0
140 4 140 10 0 12 59 80 70 80 5 0 13 -19 17 -43 l9 -42 801 -3 802 -2 47 72
c57 89 84 161 84 228 0 48 -3 54 -48 98 -96 95 -205 140 -305 128 l-57 -7 0
-88 c0 -48 7 -134 15 -191 9 -56 14 -108 11 -114 -2 -6 -5 -4 -5 5 -1 9 -8 30
-16 45 -8 16 -19 51 -24 79 -14 68 -20 364 -9 394 6 17 5 27 -4 33 -10 6 -8
13 10 28 14 11 20 24 16 31 -4 7 -3 9 4 5 13 -8 36 30 27 44 -3 6 -1 10 5 10
7 0 10 7 7 14 -4 11 -1 13 10 9 11 -4 14 -2 9 5 -4 7 -2 12 3 12 6 0 11 12 11
28 0 22 2 24 11 12 8 -12 9 -9 5 13 -4 15 -3 27 1 27 8 0 28 48 52 121 6 20
12 57 13 83 1 25 7 46 13 46 5 0 3 5 -5 10 -12 8 -13 12 -2 19 10 6 15 48 18
162 3 146 0 200 -15 198 -3 0 -21 -16 -38 -34z m-849 -471 c14 -14 16 -14 16
0 0 12 12 15 60 13 33 -1 60 -3 60 -5 0 -19 -28 -43 -65 -57 -35 -14 -63 -16
-132 -12 -49 4 -91 7 -95 7 -5 0 -8 11 -8 25 0 18 7 26 25 31 14 3 31 4 37 1
7 -2 22 -1 33 4 32 12 52 10 69 -7z m-666 -804 c0 -9 -3 -7 -8 5 -5 11 -8 29
-8 40 0 16 2 15 8 -5 4 -14 8 -32 8 -40z m91 -230 c0 -10 -3 -8 -9 5 -12 27
-12 43 0 25 5 -8 9 -22 9 -30z"/>
<path d="M2601 1494 c0 -11 3 -14 6 -6 3 7 2 16 -1 19 -3 4 -6 -2 -5 -13z"/>
<path d="M3368 1453 c7 -3 16 -2 19 1 4 3 -2 6 -13 5 -11 0 -14 -3 -6 -6z"/>
<path d="M2188 1423 c7 -3 16 -2 19 1 4 3 -2 6 -13 5 -11 0 -14 -3 -6 -6z"/>
<path d="M2680 830 c0 -5 5 -10 11 -10 5 0 7 5 4 10 -3 6 -8 10 -11 10 -2 0
-4 -4 -4 -10z"/>
<path d="M1021 34 c0 -11 3 -14 6 -6 3 7 2 16 -1 19 -3 4 -6 -2 -5 -13z"/>
</g>
</svg>
